- 
http://www.Speed.Cd 
       
http://www.Speed.Cd       the fast  and The Hottest Private Tracker on the net

Please Seed back to make the speed Faster!!!

and don't forget to visit      ...... http://www. Speed.Cd..........
-                                                                                                     
       
     
     
       
       
     
     
                                         
                                         
                EXVID                    
                                         
         
                                         
         Filled the Archives             
                                         
         
                                         
                With:                    
                                         
         
                                         
                                    
     E240                           
                                    
     SP               (C) 2009      
                                         
     
     
     
                                                                                  
                                                                                   
            Kill.The.Irishman.2011.LiMiTED.DVDRip.XviD-EXViD                        
                                                                                   
                                                                                  
     
                                                                                               
EXViD aims to iNTERNAL those releases which have been lost in the archives.
EXViD aims to PRE non-internal releases which have poor sources and are likely skipped by others. 
http://www.imdb.com/title/tt1416801/
Subtitles: EN, FR, DE, NL, ES
Date: 2011.04

Director: Jonathan Hensleigh

Genres:
Action | Crime

Plot:
The true story of Danny Greene, a tough Irish thug working for mobsters in Cleveland during the 1970's.

Cast:
Credited cast:
Ray Stevenson 	 ... 	Danny Greene 
Vincent D'Onofrio 	 ... 	John Nardi 
Val Kilmer 	 ... 	Joe Manditski 
Christopher Walken 	 ... 	Shondor Birns 
Linda Cardellini 	 ... 	 Joan Madigan 
Tony Darrow 	 ... 	 Mikey Mendarolo 
Robert Davi 	 ... 	 Ray Ferritto 
Fionnula Flanagan 	 ... 	 Grace O'Keefe 
Bob Gunton 	 ... 	 Jerry Merke 
Jason Butler Harner 	 ... 	 Art Sneperger 
Vinnie Jones 	 ... 	Keith Ritson 
Tony Lo Bianco 	 ... 	 Jack Licavoli 
Laura Ramsey 	 ... 	 Ellie O'Hara 
Steve Schirripa 	 ... 	 Mike Frato (as Steven R. Schirripa) 
Paul Sorvino 	 ... 	Tony Salerno

Stats:
Format                           : AVI
Format/Info                      : Audio Video Interleave
File size                        : 702 MiB
Duration                         : 1h 42mn
Overall bit rate                 : 960 Kbps
Writing application              : VirtualDubMod 1.5.10.2 (build 2540/release)
Writing library                  : VirtualDubMod build 2540/release

Video
ID                               : 0
Format                           : MPEG-4 Visual
Format profile                   : Advanced Simple@L5
Format settings, BVOP            : Yes
Format settings, QPel            : No
Format settings, GMC             : No warppoints
Format settings, Matrix          : Default (H.263)
Muxing mode                      : Packed bitstream
Codec ID                         : XVID
Codec ID/Hint                    : XviD
Duration                         : 1h 42mn
Bit rate                         : 818 Kbps
Width                            : 640 pixels
Height                           : 352 pixels
Display aspect ratio             : 16:9
Frame rate                       : 25.000 fps
Color space                      : YUV
Chroma subsampling               : 4:2:0
Bit depth                        : 8 bits
Scan type                        : Progressive
Bits/(Pixel*Frame)               : 0.145
Stream size                      : 598 MiB (85%)
Writing library                  : XviD 62

Audio
ID                               : 1
Format                           : MPEG Audio
Format version                   : Version 1
Format profile                   : Layer 3
Mode                             : Joint stereo
Mode extension                   : MS Stereo
Codec ID                         : 55
Codec ID/Hint                    : MP3
Duration                         : 1h 42mn
Bit rate mode                    : Variable
Bit rate                         : 128 Kbps
Channel(s)                       : 2 channels
Sampling rate                    : 48.0 KHz
Stream size                      : 94.1 MiB (13%)
Alignment                        : Aligned on interleaves
Interleave, duration             : 24 ms (0.60 video frame)
Interleave, preload duration     : 143 ms
Writing library                  : LAME3.90.
Encoding settings                : -m j -V 4 -q 2 -lowpass 17.6 --abr 128




Release notes:
enjoy!

Looking for:
75TB+ Archives
DUTCH/FLEMiSH Archives
                                                                                                    
Greets: CRBS EPiSODE FiCO FLS iLS KLASSiGER LiPSYNC MADE NODLABS RUNNER SPRiNTER      
   

                                                                    ASCII DONE BY XX^NFO 2oo9